# Blender 3.3.0
# www.blender.org
mtllib cards.mtl
o Level2
v 4.806419 -2.892880 0.254002
v -5.861581 -2.892880 0.254000
v 5.187420 3.812719 0.254000
v -6.242580 3.812719 0.253998
v 4.806419 -2.892880 0.000002
v -6.242580 -2.511880 0.000000
v 5.187420 3.812719 -0.000000
v -5.861581 4.193719 -0.000002
v 5.187420 -2.511880 0.254002
v -6.242580 -2.511880 0.254000
v 4.806419 4.193719 0.254000
v -5.861581 4.193719 0.253998
v 5.187420 -2.511880 0.000002
v -5.861581 -2.892880 0.000000
v 4.806419 4.193719 -0.000000
v -6.242580 3.812719 -0.000002
v 5.018086 -2.850547 0.254002
v 5.145086 -2.723547 0.254002
v -6.200247 -2.723547 0.254000
v -6.073247 -2.850547 0.254000
v 5.145086 4.024386 0.254000
v 5.018086 4.151386 0.254000
v -6.073247 4.151386 0.253998
v -6.200247 4.024386 0.253998
v 5.145086 -2.723547 0.000002
v 5.018086 -2.850547 0.000002
v -6.073247 -2.850547 0.000000
v -6.200247 -2.723547 0.000000
v 5.018086 4.151386 -0.000000
v 5.145086 4.024386 -0.000000
v -6.200247 4.024386 -0.000002
v -6.073247 4.151386 -0.000002
vn -0.0000 -0.0000 1.0000
vn -0.0000 -0.0000 -1.0000
vn 0.9951 0.0985 -0.0000
vn 0.9951 -0.0985 -0.0000
vn -0.0985 0.9951 -0.0000
vn 0.0985 0.9951 -0.0000
vn -0.9951 -0.0985 -0.0000
vn -0.9951 0.0985 -0.0000
vn 0.0985 -0.9951 -0.0000
vn -0.0985 -0.9951 -0.0000
vn 0.8817 -0.4719 -0.0000
vn -0.4719 -0.8817 -0.0000
vn 0.4719 0.8817 -0.0000
vn -0.8817 0.4719 -0.0000
vn 0.4719 -0.8817 -0.0000
vn -0.8817 -0.4719 -0.0000
vn 0.8817 0.4719 -0.0000
vn -0.4719 0.8817 -0.0000
vt 0.966667 0.000000
vt 0.033333 0.000000
vt 0.966667 0.000000
vt 1.000000 0.946237
vt 0.000000 0.946237
vt 1.000000 0.946237
vt 0.033333 0.000000
vt 0.966667 -0.000000
vt 1.000000 0.053763
vt 0.000000 0.946237
vt 1.000000 0.946237
vt 0.966667 1.000000
vt 1.000000 0.053763
vt 0.000000 0.053763
vt 1.000000 0.053763
vt 0.966667 1.000000
vt 0.033333 1.000000
vt 0.033333 1.000000
vt 0.966667 1.000000
vt 0.000000 0.053763
vt 1.000000 0.053763
vt 0.033333 0.000000
vt 0.966667 0.000000
vt 0.033333 1.000000
vt 1.000000 0.946237
vt 0.985185 0.005974
vt 0.996296 0.023895
vt 0.003704 0.023895
vt 0.996296 0.023895
vt 0.014815 0.005974
vt 0.985185 0.005974
vt 0.996296 0.976105
vt 0.003704 0.976105
vt 0.985185 0.994026
vt 0.014815 0.994026
vt 0.014815 0.994026
vt 0.985185 0.994026
vt 0.003704 0.976105
vt 0.996296 0.976105
vt 0.003704 0.023895
vt 0.996296 0.023895
vt 0.014815 0.005974
vt 0.985185 0.005974
vt 0.985185 0.005974
vt 0.996296 0.023895
vt 0.014815 0.994026
vt 0.996296 0.976105
vt 0.003704 0.976105
vt 0.996296 0.976105
vt 0.985185 0.994026
s 1
usemtl 01_-_Default
f 9/13/1 3/4/1 21/32/1
f 9/13/1 21/32/1 22/34/1
f 9/13/1 22/34/1 11/16/1
f 11/16/1 12/18/1 23/36/1
f 11/16/1 23/36/1 24/38/1
f 11/16/1 24/38/1 4/5/1
f 9/13/1 11/16/1 4/5/1
f 4/5/1 10/14/1 19/28/1
f 4/5/1 19/28/1 20/30/1
f 4/5/1 20/30/1 2/2/1
f 9/13/1 4/5/1 2/2/1
f 18/27/1 9/13/1 2/2/1
f 17/26/1 18/27/1 2/2/1
f 1/1/1 17/26/1 2/2/1
f 3/4/3 9/13/4 13/21/4
f 13/21/4 7/11/3 3/4/3
f 12/19/5 11/17/6 15/24/6
f 15/24/6 8/12/5 12/19/5
f 10/15/7 4/6/8 16/25/8
f 16/25/8 6/9/7 10/15/7
f 1/1/9 2/2/10 14/22/10
f 14/22/10 5/8/9 1/1/9
f 9/13/4 18/27/11 25/41/11
f 25/41/11 13/21/4 9/13/4
f 2/3/10 20/31/12 27/44/12
f 27/44/12 14/23/10 2/3/10
f 11/17/6 22/35/13 29/46/13
f 29/46/13 15/24/6 11/17/6
f 4/6/8 24/39/14 31/49/14
f 31/49/14 16/25/8 4/6/8
f 17/26/15 1/1/9 5/8/9
f 5/8/9 26/43/15 17/26/15
f 18/27/11 17/26/15 26/43/15
f 26/43/15 25/41/11 18/27/11
f 19/29/16 10/15/7 6/9/7
f 6/9/7 28/45/16 19/29/16
f 20/31/12 19/29/16 28/45/16
f 28/45/16 27/44/12 20/31/12
f 21/32/17 3/4/3 7/11/3
f 7/11/3 30/47/17 21/32/17
f 22/35/13 21/33/17 30/48/17
f 30/48/17 29/46/13 22/35/13
f 23/37/18 12/19/5 8/12/5
f 8/12/5 32/50/18 23/37/18
f 24/39/14 23/37/18 32/50/18
f 32/50/18 31/49/14 24/39/14
usemtl 02_-_Default
f 5/7/2 14/23/2 27/44/2
f 5/7/2 27/44/2 28/45/2
f 5/7/2 28/45/2 6/9/2
f 6/9/2 16/25/2 31/49/2
f 6/9/2 31/49/2 32/50/2
f 6/9/2 32/50/2 8/12/2
f 5/7/2 6/9/2 8/12/2
f 8/12/2 15/24/2 29/46/2
f 8/12/2 29/46/2 30/48/2
f 8/12/2 30/48/2 7/10/2
f 5/7/2 8/12/2 7/10/2
f 26/42/2 5/7/2 7/10/2
f 25/40/2 26/42/2 7/10/2
f 13/20/2 25/40/2 7/10/2
o Level1
v -7.441886 -2.891616 0.254000
v -18.109884 -2.891616 0.253998
v -7.060885 3.813984 0.253998
v -18.490885 3.813984 0.253996
v -7.441886 -2.891616 -0.000000
v -18.109884 -2.891616 -0.000002
v -7.060885 3.813984 -0.000002
v -18.490885 3.813984 -0.000004
v -7.060885 -2.510616 0.254000
v -18.490885 -2.510616 0.253998
v -7.441886 4.194984 0.253998
v -18.109884 4.194984 0.253996
v -7.060885 -2.510616 -0.000000
v -18.490885 -2.510616 -0.000002
v -7.441886 4.194984 -0.000002
v -18.109884 4.194984 -0.000004
v -7.156136 -2.796366 0.254000
v -18.395636 -2.796366 0.253998
v -7.156136 4.099734 0.253998
v -18.395636 4.099734 0.253996
v -7.156136 -2.796366 -0.000000
v -18.395636 -2.796366 -0.000002
v -7.156136 4.099734 -0.000002
v -18.395636 4.099734 -0.000004
vn -0.0000 -0.0000 1.0000
vn -0.0000 -0.0000 -1.0000
vn 0.9871 0.1602 -0.0000
vn 0.9871 -0.1602 -0.0000
vn -0.1602 0.9871 -0.0000
vn 0.1602 0.9871 -0.0000
vn -0.9871 -0.1602 -0.0000
vn -0.9871 0.1602 -0.0000
vn 0.1602 -0.9871 -0.0000
vn -0.1602 -0.9871 -0.0000
vn 0.7071 -0.7071 -0.0000
vn -0.7071 -0.7071 -0.0000
vn 0.7071 0.7071 -0.0000
vn -0.7071 0.7071 -0.0000
vt 0.966667 0.000000
vt 0.033333 0.000000
vt 0.033333 0.000000
vt 0.966667 -0.000000
vt 1.000000 0.946237
vt -0.000000 0.946237
vt 0.000000 0.946237
vt 1.000000 0.946236
vt 0.033333 0.000000
vt 0.966667 0.000000
vt 0.000000 0.946237
vt 1.000000 0.946237
vt 1.000000 0.053763
vt -0.000000 0.053763
vt 0.000000 0.053763
vt 1.000000 0.053763
vt 0.966667 1.000000
vt 0.033333 1.000000
vt 0.033333 1.000000
vt 0.966667 1.000000
vt 0.000000 0.053763
vt 1.000000 0.053763
vt 0.033333 1.000000
vt 0.966667 1.000000
vt 0.991667 0.013441
vt 0.008333 0.013441
vt 0.008333 0.013441
vt 0.991667 0.013441
vt 0.991667 0.986559
vt 0.008333 0.986559
vt 0.008333 0.986559
vt 0.991667 0.986559
vt 0.008333 0.013441
vt 0.991667 0.013441
vt 0.008333 0.986559
vt 0.991667 0.986559
s 1
usemtl 03_-_Default
f 41/63/19 35/55/19 51/79/19
f 41/63/19 51/79/19 43/67/19
f 43/67/19 44/69/19 52/81/19
f 43/67/19 52/81/19 36/57/19
f 41/63/19 43/67/19 36/57/19
f 36/57/19 42/65/19 50/77/19
f 36/57/19 50/77/19 34/53/19
f 41/63/19 36/57/19 34/53/19
f 49/75/19 41/63/19 34/53/19
f 33/51/19 49/75/19 34/53/19
usemtl 07_-_Default
f 37/59/20 38/60/20 54/84/20
f 37/59/20 54/84/20 46/72/20
f 46/72/20 40/62/20 56/86/20
f 46/72/20 56/86/20 48/74/20
f 37/59/20 46/72/20 48/74/20
f 48/74/20 47/73/20 55/85/20
f 48/74/20 55/85/20 39/61/20
f 37/59/20 48/74/20 39/61/20
f 53/83/20 37/59/20 39/61/20
f 45/71/20 53/83/20 39/61/20
f 35/56/21 41/64/22 45/71/22
f 45/71/22 39/61/21 35/56/21
f 44/70/23 43/68/24 47/73/24
f 47/73/24 48/74/23 44/70/23
f 42/66/25 36/58/26 40/62/26
f 40/62/26 46/72/25 42/66/25
f 33/52/27 34/54/28 38/60/28
f 38/60/28 37/59/27 33/52/27
f 41/64/22 49/76/29 53/83/29
f 53/83/29 45/71/22 41/64/22
f 34/54/28 50/78/30 54/84/30
f 54/84/30 38/60/28 34/54/28
f 43/68/24 51/80/31 55/85/31
f 55/85/31 47/73/24 43/68/24
f 36/58/26 52/82/32 56/86/32
f 56/86/32 40/62/26 36/58/26
f 49/76/29 33/52/27 37/59/27
f 37/59/27 53/83/29 49/76/29
f 50/78/30 42/66/25 46/72/25
f 46/72/25 54/84/30 50/78/30
f 51/80/31 35/56/21 39/61/21
f 39/61/21 55/85/31 51/80/31
f 52/82/32 44/70/23 48/74/23
f 48/74/23 56/86/32 52/82/32
o Level3
v 17.053820 -2.892880 0.254004
v 6.385819 -2.892880 0.254002
v 17.434820 3.812719 0.254002
v 6.004819 3.812719 0.254000
v 17.053820 -2.892880 0.000004
v 6.004819 -2.511880 0.000002
v 17.434820 3.812719 0.000002
v 6.385819 4.193719 0.000000
v 17.434820 -2.511880 0.254004
v 6.004819 -2.511880 0.254002
v 17.053820 4.193719 0.254002
v 6.385819 4.193719 0.254000
v 17.434820 -2.511880 0.000004
v 6.385819 -2.892880 0.000002
v 17.053820 4.193719 0.000002
v 6.004819 3.812719 0.000000
v 17.265486 -2.850547 0.254004
v 17.392485 -2.723547 0.254004
v 6.047153 -2.723547 0.254002
v 6.174153 -2.850547 0.254002
v 17.392485 4.024386 0.254002
v 17.265486 4.151386 0.254002
v 6.174153 4.151386 0.254000
v 6.047153 4.024386 0.254000
v 17.392485 -2.723547 0.000004
v 17.265486 -2.850547 0.000004
v 6.174153 -2.850547 0.000002
v 6.047153 -2.723547 0.000002
v 17.265486 4.151386 0.000002
v 17.392485 4.024386 0.000002
v 6.047153 4.024386 0.000000
v 6.174153 4.151386 0.000000
vn -0.0000 -0.0000 1.0000
vn -0.0000 -0.0000 -1.0000
vn 0.9951 0.0985 -0.0000
vn 0.9951 -0.0985 -0.0000
vn -0.0985 0.9951 -0.0000
vn 0.0985 0.9951 -0.0000
vn -0.9951 -0.0985 -0.0000
vn -0.9951 0.0985 -0.0000
vn 0.0985 -0.9951 -0.0000
vn -0.0985 -0.9951 -0.0000
vn 0.8817 -0.4719 -0.0000
vn -0.4719 -0.8817 -0.0000
vn 0.4719 0.8817 -0.0000
vn -0.8817 0.4719 -0.0000
vn 0.4719 -0.8817 -0.0000
vn -0.8817 -0.4719 -0.0000
vn 0.8817 0.4719 -0.0000
vn -0.4719 0.8817 -0.0000
vt 0.966667 0.000000
vt 0.033333 0.000000
vt 1.000000 0.946237
vt 0.000000 0.946237
vt 0.033333 0.000000
vt 0.966667 -0.000000
vt 1.000000 0.053763
vt 0.000000 0.053763
vt 0.000000 0.946237
vt 1.000000 0.946237
vt 0.966667 1.000000
vt 0.033333 1.000000
vt 1.000000 0.053763
vt 0.000000 0.053763
vt 0.966667 1.000000
vt 0.033333 1.000000
vt 0.000000 0.053763
vt 1.000000 0.053763
vt 0.966667 0.000000
vt 0.033333 0.000000
vt 0.033333 1.000000
vt 0.966667 1.000000
vt 1.000000 0.946237
vt -0.000000 0.946237
vt 0.985185 0.005974
vt 0.996296 0.023895
vt 0.003704 0.023895
vt 0.014815 0.005974
vt 0.996296 0.976105
vt 0.985185 0.994026
vt 0.014815 0.994026
vt 0.003704 0.976105
vt 0.003704 0.023895
vt 0.996296 0.023895
vt 0.014815 0.005974
vt 0.985185 0.005974
vt 0.985185 0.005974
vt 0.014815 0.005974
vt 0.996296 0.023895
vt 0.003704 0.023895
vt 0.014815 0.994026
vt 0.985185 0.994026
vt 0.003704 0.976105
vt 0.996296 0.976105
vt 0.996296 0.976105
vt 0.003704 0.976105
vt 0.985185 0.994026
vt 0.014815 0.994026
s 1
usemtl 08_-_Default
f 65/99/33 59/89/33 77/115/33
f 65/99/33 77/115/33 78/116/33
f 65/99/33 78/116/33 67/101/33
f 67/101/33 68/102/33 79/117/33
f 67/101/33 79/117/33 80/118/33
f 67/101/33 80/118/33 60/90/33
f 65/99/33 67/101/33 60/90/33
f 60/90/33 66/100/33 75/113/33
f 60/90/33 75/113/33 76/114/33
f 60/90/33 76/114/33 58/88/33
f 65/99/33 60/90/33 58/88/33
f 74/112/33 65/99/33 58/88/33
f 73/111/33 74/112/33 58/88/33
f 57/87/33 73/111/33 58/88/33
usemtl 09_-_Default
f 61/91/34 70/105/34 83/123/34
f 61/91/34 83/123/34 84/125/34
f 61/91/34 84/125/34 62/93/34
f 62/93/34 72/109/34 87/131/34
f 62/93/34 87/131/34 88/133/34
f 62/93/34 88/133/34 64/97/34
f 61/91/34 62/93/34 64/97/34
f 64/97/34 71/107/34 85/127/34
f 64/97/34 85/127/34 86/129/34
f 64/97/34 86/129/34 63/95/34
f 61/91/34 64/97/34 63/95/34
f 82/121/34 61/91/34 63/95/34
f 81/119/34 82/121/34 63/95/34
f 69/103/34 81/119/34 63/95/34
f 59/89/35 65/99/36 69/104/36
f 69/104/36 63/96/35 59/89/35
f 68/102/37 67/101/38 71/108/38
f 71/108/38 64/98/37 68/102/37
f 66/100/39 60/90/40 72/110/40
f 72/110/40 62/94/39 66/100/39
f 57/87/41 58/88/42 70/106/42
f 70/106/42 61/92/41 57/87/41
f 65/99/36 74/112/43 81/120/43
f 81/120/43 69/104/36 65/99/36
f 58/88/42 76/114/44 83/124/44
f 83/124/44 70/106/42 58/88/42
f 67/101/38 78/116/45 85/128/45
f 85/128/45 71/108/38 67/101/38
f 60/90/40 80/118/46 87/132/46
f 87/132/46 72/110/40 60/90/40
f 73/111/47 57/87/41 61/92/41
f 61/92/41 82/122/47 73/111/47
f 74/112/43 73/111/47 82/122/47
f 82/122/47 81/120/43 74/112/43
f 75/113/48 66/100/39 62/94/39
f 62/94/39 84/126/48 75/113/48
f 76/114/44 75/113/48 84/126/48
f 84/126/48 83/124/44 76/114/44
f 77/115/49 59/89/35 63/96/35
f 63/96/35 86/130/49 77/115/49
f 78/116/45 77/115/49 86/130/49
f 86/130/49 85/128/45 78/116/45
f 79/117/50 68/102/37 64/98/37
f 64/98/37 88/134/50 79/117/50
f 80/118/46 79/117/50 88/134/50
f 88/134/50 87/132/46 80/118/46
o Level4
v -0.773948 -10.592333 0.254002
v -11.441947 -10.592333 0.254001
v -0.392948 -3.886733 0.254001
v -11.822948 -3.886733 0.253999
v -0.773948 -10.592333 0.000002
v -11.822948 -10.211333 0.000001
v -0.392948 -3.886733 0.000001
v -11.441947 -3.505733 -0.000001
v -0.392948 -10.211333 0.254002
v -11.822948 -10.211333 0.254001
v -0.773948 -3.505733 0.254000
v -11.441947 -3.505733 0.253999
v -0.392948 -10.211333 0.000002
v -11.441947 -10.592333 0.000001
v -0.773948 -3.505733 0.000000
v -11.822948 -3.886733 -0.000001
v -0.488198 -10.497083 0.254002
v -11.727697 -10.497083 0.254001
v -0.488198 -3.600983 0.254000
v -11.727697 -3.600983 0.253999
v -0.488198 -10.497083 0.000002
v -11.727697 -10.497083 0.000001
v -0.488198 -3.600983 0.000000
v -11.727697 -3.600983 -0.000001
vn -0.0000 -0.0000 1.0000
vn -0.0000 -0.0000 -1.0000
vn 0.9871 0.1602 -0.0000
vn 0.9871 -0.1602 -0.0000
vn -0.1602 0.9871 -0.0000
vn 0.1602 0.9871 -0.0000
vn -0.9871 -0.1602 -0.0000
vn -0.9871 0.1602 -0.0000
vn 0.1602 -0.9871 -0.0000
vn -0.1602 -0.9871 -0.0000
vn 0.7071 -0.7071 -0.0000
vn -0.7071 -0.7071 -0.0000
vn 0.7071 0.7071 -0.0000
vn -0.7071 0.7071 -0.0000
vt 0.033333 0.000000
vt 0.966667 0.000000
vt 0.033333 0.000000
vt 0.966667 -0.000000
vt 1.000000 0.946237
vt 0.000000 0.946237
vt 0.000000 0.946237
vt 1.000000 0.946237
vt 0.033333 0.000000
vt 0.966667 -0.000000
vt 1.000000 0.053763
vt 1.000000 0.946236
vt 0.000000 0.946237
vt 0.966667 1.000000
vt 1.000000 0.053763
vt 0.000000 0.053763
vt 1.000000 0.053763
vt 0.966667 1.000000
vt 0.033333 1.000000
vt 0.033333 1.000000
vt 0.966667 1.000000
vt 0.000000 0.053763
vt 1.000000 0.053763
vt 0.966667 0.000000
vt 0.033333 1.000000
vt 1.000000 0.946237
vt 0.991667 0.013441
vt 0.008333 0.013441
vt 0.991667 0.013441
vt 0.991667 0.986559
vt 0.008333 0.986559
vt 0.008333 0.986559
vt 0.991667 0.986559
vt 0.008333 0.013441
vt 0.991667 0.013441
vt 0.991667 0.013441
vt 0.008333 0.986559
vt 0.991667 0.986559
s 1
usemtl 13_-_Default
f 97/149/51 91/139/51 107/164/51
f 97/149/51 107/164/51 99/152/51
f 99/152/51 100/154/51 108/166/51
f 99/152/51 108/166/51 92/141/51
f 97/149/51 99/152/51 92/141/51
f 92/141/51 98/150/51 106/162/51
f 92/141/51 106/162/51 90/137/51
f 97/149/51 92/141/51 90/137/51
f 105/161/51 97/149/51 90/137/51
f 89/136/51 105/161/51 90/137/51
usemtl 14_-_Default
f 93/143/52 102/158/52 110/170/52
f 93/143/52 110/170/52 94/145/52
f 94/145/52 104/160/52 112/172/52
f 94/145/52 112/172/52 96/148/52
f 93/143/52 94/145/52 96/148/52
f 96/148/52 103/159/52 111/171/52
f 96/148/52 111/171/52 95/147/52
f 93/143/52 96/148/52 95/147/52
f 109/168/52 93/143/52 95/147/52
f 101/156/52 109/168/52 95/147/52
f 91/139/53 97/149/54 101/157/54
f 101/157/54 95/146/53 91/139/53
f 100/155/55 99/153/56 103/159/56
f 103/159/56 96/148/55 100/155/55
f 98/151/57 92/142/58 104/160/58
f 104/160/58 94/145/57 98/151/57
f 89/135/59 90/138/60 102/158/60
f 102/158/60 93/143/59 89/135/59
f 97/149/54 105/161/61 109/169/61
f 109/169/61 101/157/54 97/149/54
f 90/138/60 106/163/62 110/170/62
f 110/170/62 102/158/60 90/138/60
f 99/153/56 107/165/63 111/171/63
f 111/171/63 103/159/56 99/153/56
f 92/142/58 108/167/64 112/172/64
f 112/172/64 104/160/58 92/142/58
f 105/161/61 89/136/59 93/144/59
f 93/144/59 109/169/61 105/161/61
f 106/163/62 98/151/57 94/145/57
f 94/145/57 110/170/62 106/163/62
f 107/165/63 91/140/53 95/147/53
f 95/147/53 111/171/63 107/165/63
f 108/167/64 100/155/55 96/148/55
f 96/148/55 112/172/64 108/167/64
o Level5
v 11.406047 -10.592333 0.254002
v 11.691797 -10.497083 0.254002
v 11.787047 -10.211333 0.254002
v 11.787047 -3.886733 0.254001
v 11.691797 -3.600983 0.254000
v 11.406047 -3.505733 0.254000
v 0.738048 -3.505733 0.253999
v 0.452298 -3.600983 0.253999
v 0.357048 -3.886733 0.253999
v 0.357048 -10.211333 0.254001
v 0.452298 -10.497083 0.254001
v 0.738048 -10.592333 0.254001
v 11.787048 -10.211333 0.000002
v 11.691798 -10.497083 0.000002
v 11.406049 -10.592333 0.000002
v 0.738048 -10.592333 0.000001
v 0.452298 -10.497083 0.000001
v 0.357048 -10.211333 0.000001
v 0.357048 -3.886733 -0.000001
v 0.452298 -3.600983 -0.000001
v 0.738048 -3.505733 -0.000001
v 11.406049 -3.505733 0.000000
v 11.691798 -3.600983 0.000000
v 11.787048 -3.886733 0.000001
vn -0.0000 -0.0000 1.0000
vn -0.0000 -0.0000 -1.0000
vn 0.9871 0.1602 -0.0000
vn 0.9871 -0.1602 -0.0000
vn -0.1602 0.9871 -0.0000
vn 0.1602 0.9871 -0.0000
vn -0.9871 -0.1602 -0.0000
vn -0.9871 0.1602 -0.0000
vn 0.1602 -0.9871 -0.0000
vn -0.1602 -0.9871 -0.0000
vn 0.7071 -0.7071 -0.0000
vn -0.7071 -0.7071 -0.0000
vn 0.7071 0.7071 -0.0000
vn -0.7071 0.7071 -0.0000
vt 0.033333 0.000000
vt 0.966667 0.000000
vt 0.991667 0.013441
vt 1.000000 0.053763
vt 1.000000 0.946237
vt 0.000000 0.946237
vt 0.991667 0.986559
vt 0.008333 0.986559
vt 0.966667 1.000000
vt 0.033333 1.000000
vt 0.033333 1.000000
vt 0.966667 1.000000
vt 0.008333 0.986559
vt 0.991667 0.986559
vt 0.000000 0.946237
vt 1.000000 0.946237
vt 0.000000 0.053763
vt 1.000000 0.053763
vt 0.008333 0.013441
vt 0.991667 0.013441
vt 0.033333 0.000000
vt 0.966667 -0.000000
vt 0.000000 0.053763
vt 1.000000 0.053763
vt 0.008333 0.013441
vt 0.991667 0.013441
vt 0.033333 0.000000
vt 0.966667 -0.000000
vt 0.966667 0.000000
vt 0.991667 0.013441
vt 1.000000 0.053763
vt 1.000000 0.946237
vt 0.991667 0.986559
vt 0.966667 1.000000
vt 0.033333 1.000000
vt 0.008333 0.986559
vt 1.000000 0.946236
vt 0.000000 0.946237
s 1
usemtl 15_-_Default
f 115/176/65 116/177/65 117/179/65
f 115/176/65 117/179/65 118/181/65
f 118/181/65 119/183/65 120/185/65
f 118/181/65 120/185/65 121/187/65
f 115/176/65 118/181/65 121/187/65
f 121/187/65 122/189/65 123/191/65
f 121/187/65 123/191/65 124/193/65
f 115/176/65 121/187/65 124/193/65
f 114/175/65 115/176/65 124/193/65
f 113/174/65 114/175/65 124/193/65
usemtl 19_-_Default
f 127/199/66 128/201/66 129/202/66
f 127/199/66 129/202/66 130/203/66
f 130/203/66 131/204/66 132/205/66
f 130/203/66 132/205/66 133/206/66
f 127/199/66 130/203/66 133/206/66
f 133/206/66 134/207/66 135/208/66
f 133/206/66 135/208/66 136/210/66
f 127/199/66 133/206/66 136/210/66
f 126/197/66 127/199/66 136/210/66
f 125/195/66 126/197/66 136/210/66
f 116/177/67 115/176/68 125/196/68
f 125/196/68 136/209/67 116/177/67
f 119/184/69 118/182/70 134/207/70
f 134/207/70 133/206/69 119/184/69
f 122/190/71 121/188/72 131/204/72
f 131/204/72 130/203/71 122/190/71
f 113/173/73 124/194/74 128/201/74
f 128/201/74 127/199/73 113/173/73
f 115/176/68 114/175/75 126/198/75
f 126/198/75 125/196/68 115/176/68
f 124/194/74 123/192/76 129/202/76
f 129/202/76 128/201/74 124/194/74
f 118/182/70 117/180/77 135/208/77
f 135/208/77 134/207/70 118/182/70
f 121/188/72 120/186/78 132/205/78
f 132/205/78 131/204/72 121/188/72
f 114/175/75 113/174/73 127/200/73
f 127/200/73 126/198/75 114/175/75
f 123/192/76 122/190/71 130/203/71
f 130/203/71 129/202/76 123/192/76
f 117/180/77 116/178/67 136/210/67
f 136/210/67 135/208/77 117/180/77
f 120/186/78 119/184/69 133/206/69
f 133/206/69 132/205/78 120/186/78
